<?xml version="1.0" encoding="UTF-8" standalone="no"?>
<!--

  cubic.svg

  Copyright (C) 2020 PJ Singh <psingh.cubic@gmail.com>

  All rights reserved.

-->

<svg
   width="512"
   height="512"
   viewBox="0 0 511.99999 512.00001"
   id="svg2"
   version="1.1"
   inkscape:version="1.1.1 (3bf5ae0d25, 2021-09-20)"
   sodipodi:docname="cubic.svg"
   xmlns:inkscape="http://www.inkscape.org/namespaces/inkscape"
   xmlns:sodipodi="http://sodipodi.sourceforge.net/DTD/sodipodi-0.dtd"
   xmlns="http://www.w3.org/2000/svg"
   xmlns:svg="http://www.w3.org/2000/svg"
   xmlns:rdf="http://www.w3.org/1999/02/22-rdf-syntax-ns#"
   xmlns:cc="http://creativecommons.org/ns#"
   xmlns:dc="http://purl.org/dc/elements/1.1/">
  <defs
     id="defs4">
    <linearGradient
       id="linearGradient5613"
       inkscape:swatch="solid">
      <stop
         style="stop-color:#000000;stop-opacity:1;"
         offset="0"
         id="stop5615" />
    </linearGradient>
  </defs>
  <sodipodi:namedview
     id="base"
     pagecolor="#ffffff"
     bordercolor="#666666"
     borderopacity="1.0"
     inkscape:pageopacity="0.0"
     inkscape:pageshadow="2"
     inkscape:zoom="0.885"
     inkscape:cx="-54.237288"
     inkscape:cy="327.68362"
     inkscape:document-units="px"
     inkscape:current-layer="layer1"
     showgrid="true"
     inkscape:snap-grids="true"
     showguides="true"
     inkscape:window-width="1852"
     inkscape:window-height="1016"
     inkscape:window-x="68"
     inkscape:window-y="27"
     inkscape:window-maximized="1"
     inkscape:snap-nodes="true"
     inkscape:snap-others="true"
     inkscape:snap-bbox="false"
     inkscape:snap-global="true"
     inkscape:snap-to-guides="true"
     inkscape:snap-intersection-paths="true"
     inkscape:guide-bbox="true"
     units="px"
     inkscape:pagecheckerboard="0">
    <inkscape:grid
       type="xygrid"
       id="grid3336"
       dotted="false" />
  </sodipodi:namedview>
  <metadata
     id="metadata7">
    <rdf:RDF>
      <cc:Work
         rdf:about="">
        <dc:format>image/svg+xml</dc:format>
        <dc:type
           rdf:resource="http://purl.org/dc/dcmitype/StillImage" />
      </cc:Work>
    </rdf:RDF>
  </metadata>
  <g
     inkscape:label="Layer 1"
     inkscape:groupmode="layer"
     id="layer1"
     transform="translate(0,-540.36216)">
    <g
       id="g4143">
      <path
         inkscape:connector-curvature="0"
         id="path3521"
         d="m 305.06836,790.65891 c 48.71419,0 97.42839,0 146.14258,0 -24.35612,-42.1875 -48.71224,-84.375 -73.06836,-126.5625 -48.71419,0 -97.42839,0 -146.14258,0 24.35612,42.1875 48.71224,84.375 73.06836,126.5625 z"
         style="fill:#f44800;fill-opacity:1;fill-rule:evenodd;stroke:none;stroke-width:0.5;stroke-linecap:round;stroke-linejoin:round;stroke-miterlimit:4;stroke-dasharray:none;stroke-opacity:1" />
      <path
         inkscape:connector-curvature="0"
         id="path3523"
         d="m 232,929.22336 c 48.71419,0 97.42839,0 146.14258,0 24.35612,-42.18815 48.71224,-84.3763 73.06836,-126.56445 -48.71419,0 -97.42839,0 -146.14258,0 C 280.71224,844.84706 256.35612,887.03521 232,929.22336 Z"
         style="fill:#d40000;fill-opacity:1;fill-rule:evenodd;stroke:none;stroke-width:0.5;stroke-linecap:round;stroke-linejoin:round;stroke-miterlimit:4;stroke-dasharray:none;stroke-opacity:1" />
      <path
         inkscape:connector-curvature="0"
         id="path3525"
         d="m 148.53711,796.65891 c 24.35612,42.18815 48.71224,84.3763 73.06836,126.56445 24.35612,-42.18815 48.71224,-84.3763 73.06836,-126.56445 -24.35612,-42.1875 -48.71224,-84.375 -73.06836,-126.5625 -24.35612,42.1875 -48.71224,84.375 -73.06836,126.5625 z"
         style="fill:#fb8b00;fill-opacity:1;fill-rule:evenodd;stroke:none;stroke-width:0.5;stroke-linecap:round;stroke-linejoin:round;stroke-miterlimit:4;stroke-dasharray:none;stroke-opacity:1" />
      <path
         inkscape:connector-curvature="0"
         id="path3527"
         d="m 225.06836,652.09641 c 51.02474,0 102.04948,0 153.07422,0 13.68945,-23.71289 27.37891,-47.42578 41.06836,-71.13867 -78.40365,0 -156.80729,0 -235.21094,0 13.68945,23.71289 27.37891,47.42578 41.06836,71.13867 z"
         style="fill:#d40000;fill-opacity:1;fill-rule:evenodd;stroke:none;stroke-width:0.5;stroke-linecap:round;stroke-linejoin:round;stroke-miterlimit:4;stroke-dasharray:none;stroke-opacity:1" />
      <path
         inkscape:connector-curvature="0"
         id="path3529"
         d="m 184,1012.3622 c 78.40365,0 156.80729,0 235.21094,0 -13.68945,-23.71304 -27.37891,-47.42594 -41.06836,-71.13884 -51.02474,0 -102.04948,0 -153.07422,0 -13.68945,23.7129 -27.37891,47.4258 -41.06836,71.13884 z"
         style="fill:#f44800;fill-opacity:1;fill-rule:evenodd;stroke:none;stroke-width:0.5;stroke-linecap:round;stroke-linejoin:round;stroke-miterlimit:4;stroke-dasharray:none;stroke-opacity:1" />
      <path
         inkscape:connector-curvature="0"
         id="path3531"
         d="m 173.60547,1006.3622 c 13.68945,-23.71304 27.37891,-47.42595 41.06836,-71.13884 -25.51042,-44.18815 -51.02083,-88.3763 -76.53125,-132.56445 -27.38086,0 -54.76172,0 -82.14258,0 39.20182,67.90104 78.40365,135.80208 117.60547,203.70329 z"
         style="fill:#f44800;fill-opacity:1;fill-rule:evenodd;stroke:none;stroke-width:0.5;stroke-linecap:round;stroke-linejoin:round;stroke-miterlimit:4;stroke-dasharray:none;stroke-opacity:1" />
      <path
         inkscape:connector-curvature="0"
         id="path3533"
         d="m 56,790.65891 c 27.38086,0 54.76172,0 82.14258,0 25.51042,-44.1875 51.02083,-88.375 76.53125,-132.5625 C 200.98438,634.38352 187.29492,610.67063 173.60547,586.95774 134.40365,654.85813 95.20182,722.75852 56,790.65891 Z"
         style="fill:#d40000;fill-opacity:1;fill-rule:evenodd;stroke:none;stroke-width:0.5;stroke-linecap:round;stroke-linejoin:round;stroke-miterlimit:4;stroke-dasharray:none;stroke-opacity:1" />
    </g>
  </g>
</svg>
