<?xml version="1.0" encoding="UTF-8" standalone="no"?>

<!--

  compression-grid.svg

  Copyright (C) 2020 PJ Singh <psingh.cubic@gmail.com>

  This file is part of Cubic - Custom Ubuntu ISO Creator.

  See <http://www.gnu.org/licenses/>.

-->

<svg height="350" width="350">

  <defs>
    <linearGradient id="gradient" x1="0%" y1="100%" x2="50%" y2="50%" spreadMethod="pad">
      <stop offset="0%"   stop-color="#5d5d5c" stop-opacity="0.30"/>
      <stop offset="100%" stop-color="#eae9e7" stop-opacity="0.50"/>
    </linearGradient>
  </defs>

  <path d="m 10.15,10.15 a 35,35 0 0,0 -10.15,24.85 v 280 a 35,35 0 0,0 35,35 h 280 a35,35 0 0,0 24.85,-10.15 z" fill="url(#gradient)" />

  <line stroke-dasharray="1,4" x1="000" y1="035" x2="350" y2="035" style="stroke:#aea79f;stroke-width:1"/>
  <line stroke-dasharray="1,4" x1="000" y1="105" x2="350" y2="105" style="stroke:#aea79f;stroke-width:1"/>
  <line stroke-dasharray="1,4" x1="000" y1="175" x2="350" y2="175" style="stroke:#aea79f;stroke-width:1"/>
  <line stroke-dasharray="1,4" x1="000" y1="245" x2="350" y2="245" style="stroke:#aea79f;stroke-width:1"/>
  <line stroke-dasharray="1,4" x1="000" y1="315" x2="350" y2="315" style="stroke:#aea79f;stroke-width:1"/>

  <line stroke-dasharray="1,4" x1="035" y1="000" x2="035" y2="350" style="stroke:#aea79f;stroke-width:1"/>
  <line stroke-dasharray="1,4" x1="105" y1="000" x2="105" y2="350" style="stroke:#aea79f;stroke-width:1"/>
  <line stroke-dasharray="1,4" x1="175" y1="000" x2="175" y2="350" style="stroke:#aea79f;stroke-width:1"/>
  <line stroke-dasharray="1,4" x1="245" y1="000" x2="245" y2="350" style="stroke:#aea79f;stroke-width:1"/>
  <line stroke-dasharray="1,4" x1="315" y1="000" x2="315" y2="350" style="stroke:#aea79f;stroke-width:1"/>

</svg>
